<svg width="110" height="110" viewBox="0 0 110 110" fill="none" xmlns="http://www.w3.org/2000/svg">
<path d="M70.3404 6.77417V17.7375H39.655V6.78334C39.655 6.20065 39.8862 5.64177 40.2977 5.22932C40.7093 4.81687 41.2677 4.58455 41.8504 4.58334H68.1496C68.7299 4.58575 69.2857 4.81734 69.6961 5.22768C70.1064 5.63802 70.338 6.19387 70.3404 6.77417Z" fill="#E3E3E3" stroke="#191919" stroke-linecap="round" stroke-linejoin="round"/>
<path d="M79.1083 46.2275V102.117C79.1083 106.498 30.8917 106.498 30.8917 102.117V46.2275C30.8917 37.4596 39.6596 26.5008 39.6596 22.1192V17.7329H70.3404V22.1192C70.3404 26.5008 79.1083 37.4596 79.1083 46.2275Z" fill="#C2F3FF"/>
<path d="M55 79.1038C50.1785 79.1056 45.4358 77.8807 41.2183 75.5442C37.0007 73.2077 33.4471 69.8365 30.8917 65.7479V102.13C30.8917 106.512 79.1083 106.512 79.1083 102.13V65.7479C76.5529 69.8365 72.9992 73.2077 68.7817 75.5442C64.5642 77.8807 59.8215 79.1056 55 79.1038Z" fill="#66E1FF"/>
<path d="M79.1083 46.2275V102.117C79.1083 106.498 30.8917 106.498 30.8917 102.117V46.2275C30.8917 37.4596 39.6596 26.5008 39.6596 22.1192V17.7329H70.3404V22.1192C70.3404 26.5008 79.1083 37.4596 79.1083 46.2275Z" stroke="#191919" stroke-linecap="round" stroke-linejoin="round"/>
</svg>
